<?xml version="1.0" encoding="utf-8"?>
<!-- Generator: Adobe Illustrator 17.1.0, SVG Export Plug-In . SVG Version: 6.00 Build 0)  -->
<!DOCTYPE svg PUBLIC "-//W3C//DTD SVG 1.1//EN" "http://www.w3.org/Graphics/SVG/1.1/DTD/svg11.dtd">
<svg version="1.1" id="Layer_1" xmlns="http://www.w3.org/2000/svg" xmlns:xlink="http://www.w3.org/1999/xlink" x="0px" y="0px"
	 viewBox="0 0 160 160" enable-background="new 0 0 160 160" xml:space="preserve">
<g>
	<path d="M80,41.5c15.4,0,27.9,12.6,27.9,28.1c0,15.6-12.2,27.9-27.8,27.9c-15.6,0-28.2-12.5-28.2-27.9C51.9,54.1,64.5,41.5,80,41.5
		 M80,36.9c-18.1,0-32.7,14.6-32.7,32.7c0,18.1,14.8,32.6,32.9,32.6c18.1,0,32.4-14.5,32.4-32.6C112.5,51.5,98,36.9,80,36.9L80,36.9
		z"/>
	<path d="M47.4,94.9c2.2,2.6,4.7,5.1,7.6,7.3l-9.2,9.1l0-3.2l0-4.6h-4.6H39L47.4,94.9 M48,87.8L27.8,108h13.4l0.1,14.3l21-20.8
		C56.5,98.1,51.5,93.5,48,87.8L48,87.8z"/>
	<path d="M113,95.5l8,8.1l-2.4,0l-4.7,0l0,4.7l0,3.4l-8.5-8.8C108.2,100.7,110.8,98.2,113,95.5 M112.4,88.3
		c-3.5,5.7-8.4,10.5-14.2,13.9l20.5,21l-0.1-15l13.6,0L112.4,88.3L112.4,88.3z"/>
	<g>
		<polygon fill-rule="evenodd" clip-rule="evenodd" points="83,78 83,56 72,56 72,61 79,61 79,78 69,78 69,83 93,83 93,78 		"/>
	</g>
</g>
</svg>
