<?xml version="1.0" encoding="utf-8"?>
<!-- Generator: Adobe Illustrator 17.1.0, SVG Export Plug-In . SVG Version: 6.00 Build 0)  -->
<!DOCTYPE svg PUBLIC "-//W3C//DTD SVG 1.1//EN" "http://www.w3.org/Graphics/SVG/1.1/DTD/svg11.dtd">
<svg version="1.1" id="Layer_1" xmlns="http://www.w3.org/2000/svg" xmlns:xlink="http://www.w3.org/1999/xlink" x="0px" y="0px"
	 viewBox="0 0 160 160" enable-background="new 0 0 160 160" xml:space="preserve">
<g>
	<path d="M58.5,101.5c3.4,0,6.1,2.9,6.1,6.3c0,3.4-2.7,6.1-6.1,6.1c-3.4,0-6.2-2.7-6.2-6.1C52.3,104.5,55.1,101.5,58.5,101.5
		 M58.5,96.9c-5.8,0-10.7,5-10.7,10.9c0,5.9,4.8,10.7,10.8,10.7c5.9,0,10.7-4.8,10.7-10.7C69.2,101.9,64.3,96.9,58.5,96.9L58.5,96.9
		z"/>
	<path d="M138.3,101.5c3.5,0,6.3,2.8,6.3,6.3c0,3.5-2.8,6-6.3,6s-6-2.5-6-6C132.4,104.3,134.8,101.5,138.3,101.5 M138.3,96.9
		c-5.9,0-10.6,4.8-10.6,11c0,6.1,4.6,10.6,10.6,10.6c6.1,0,10.9-4.7,10.9-10.6C149.3,101.8,144.4,96.9,138.3,96.9L138.3,96.9z"/>
	<path d="M132.5,46.1l13,24.7l9.8,0v17l-117,0l0.1-41.6H132.5 M135.3,41.5h-2.8H38.5h-4.6l0,4.6l-0.1,41.6l0,4.6l4.6,0l117,0l4.6,0
		v-4.6v-17v-4.6l-4.6,0l-7,0l-11.7-22.2L135.3,41.5L135.3,41.5z"/>
	<path fill-rule="evenodd" clip-rule="evenodd" d="M6.2,58.5h18.5v4.6H6.2V58.5z"/>
	<path fill-rule="evenodd" clip-rule="evenodd" d="M0,67.7h24.6v4.6H0V67.7z"/>
</g>
</svg>
