<?xml version="1.0" encoding="utf-8"?>
<!-- Generator: Adobe Illustrator 17.1.0, SVG Export Plug-In . SVG Version: 6.00 Build 0)  -->
<!DOCTYPE svg PUBLIC "-//W3C//DTD SVG 1.1//EN" "http://www.w3.org/Graphics/SVG/1.1/DTD/svg11.dtd">
<svg version="1.1" id="Layer_1" xmlns="http://www.w3.org/2000/svg" xmlns:xlink="http://www.w3.org/1999/xlink" x="0px" y="0px"
	 viewBox="0 0 160 160" enable-background="new 0 0 160 160" xml:space="preserve">
<g>
	<path d="M125.9,61c7,0,13.1,4.5,16.2,10.3h-16v17.6h16.1c-2.9,6.3-8.8,10-16.2,10c-8,0-14.9-5.7-17.3-12.9H51.4
		C49,93.2,42.1,99,34.1,99c-7,0-13.1-4.4-16.2-10.2h16V71.3H17.9C20.8,65,26.7,61,34.1,61c8,0,14.9,6.1,17.3,13.3h57.2
		C111,67.1,117.9,61,125.9,61 M125.9,56.6c-8.4,0-16.3,5.3-20.2,13.3H54.3c-3.9-8-11.8-13.3-20.2-13.3c-9,0-16.5,4.8-20.2,12.9
		L11,75.7h6.8h11.7v8.8H17.9h-7.3l3.4,6.4c4,7.6,11.9,12.5,20,12.5c8.4,0,16.3-5.2,20.2-13.1h51.4c3.9,7.7,11.8,12.9,20.2,12.9
		c9.1,0,16.6-4.7,20.2-12.6l2.8-6.2h-6.8h-11.7v-8.9h11.6h7.3l-3.4-6.4C141.9,61.6,134,56.6,125.9,56.6L125.9,56.6z"/>
</g>
</svg>
