<?xml version="1.0" encoding="utf-8"?>
<!-- Generator: Adobe Illustrator 17.1.0, SVG Export Plug-In . SVG Version: 6.00 Build 0)  -->
<!DOCTYPE svg PUBLIC "-//W3C//DTD SVG 1.1//EN" "http://www.w3.org/Graphics/SVG/1.1/DTD/svg11.dtd">
<svg version="1.1" id="Layer_1" xmlns="http://www.w3.org/2000/svg" xmlns:xlink="http://www.w3.org/1999/xlink" x="0px" y="0px"
	 viewBox="0 0 160 160" enable-background="new 0 0 160 160" xml:space="preserve">
<g>
	<path d="M117,77.9c0-20.6-16.4-36.5-37.1-36.5C59.3,41.4,42.9,57,42.9,78H43c0,0,0,0,0,0h4.7c0-3,2-3.9,4.5-3.9
		c2.6,0,4.7,0.9,4.7,3.9h4.7c0-3,2.1-3.9,4.7-3.9c2.6,0,4.7,0.9,4.7,3.9H75v-0.1v0.1c0-2.7,2.4-3.8,5-3.8c2.6,0,5,0.9,5,3.9H89v-0.1
		v0.1c0-2.7,2.4-3.9,5-3.9c2.6,0,5,1.4,5,3.9v0V78h4.6c0-3,2.1-3.9,4.7-3.9c2.6,0,4.7,0.9,4.7,3.9L117,77.9L117,77.9L117,77.9z
		 M108.3,69.4c-2.8,0-5.3,1-7,2.7c-1.7-1.7-4.2-2.7-7-2.7c-2.8,0-5.3,1-7,2.7c-1.7-1.7-4.2-2.7-7-2.7c-2.8,0-5.3,1-7,2.7
		c-1.7-1.7-4.2-2.7-7-2.7c-2.8,0-5.3,1-7,2.7c-1.7-1.7-4.2-2.7-7-2.7c-1.3,0-2.6,0.2-3.7,0.6c3.5-14.1,16.4-24,31.7-24
		c15.3,0,28.2,10,31.7,24C110.8,69.6,109.6,69.4,108.3,69.4z"/>
	<path d="M77.9,108.3L77.9,108.3c0,2.6-2.1,5.4-4.7,5.4c-2.6,0-4.7-2.1-4.7-4.6h-4.7c0,5.2,3.7,9.3,9.3,9.3c5.2,0,9.3-4.1,9.3-10.1
		V81.1h-4.7V108.3z"/>
</g>
</svg>
