<?xml version="1.0" encoding="utf-8"?>
<!-- Generator: Adobe Illustrator 19.2.0, SVG Export Plug-In . SVG Version: 6.00 Build 0)  -->
<svg version="1.1" id="Layer_1" xmlns="http://www.w3.org/2000/svg" xmlns:xlink="http://www.w3.org/1999/xlink" x="0px" y="0px"
	 width="64px" height="64px" viewBox="0 0 64 64" style="enable-background:new 0 0 64 64;" xml:space="preserve">
<style type="text/css">
	.st0{fill:#C48A2A;}
</style>
<g>
	<path class="st0" d="M11.6,37.9L0,49.5h8.4L8.3,58l12-11.9C16.8,44,13.7,41.3,11.6,37.9z"/>
	<path class="st0" d="M32,6c-10.9,0-19.8,8.9-19.8,19.8S21.1,45.5,32,45.5s19.8-8.9,19.8-19.8S43,6,32,6z M40,35H25v-4h6V21h-4v-4h8
		v14h5V35z"/>
	<path class="st0" d="M64,49.5L52.6,38c-2.1,3.4-5.1,6.3-8.6,8.4L55.7,58v-8.5H64z"/>
</g>
</svg>
