<?xml version="1.0" encoding="utf-8"?>
<!-- Generator: Adobe Illustrator 17.1.0, SVG Export Plug-In . SVG Version: 6.00 Build 0)  -->
<!DOCTYPE svg PUBLIC "-//W3C//DTD SVG 1.1//EN" "http://www.w3.org/Graphics/SVG/1.1/DTD/svg11.dtd">
<svg version="1.1" id="Layer_1" xmlns="http://www.w3.org/2000/svg" xmlns:xlink="http://www.w3.org/1999/xlink" x="0px" y="0px"
	 viewBox="0 0 100 52" style="enable-background:new 0 0 100 52;" xml:space="preserve">
<path d="M100,13.5l-2.9-0.9l-1.4,4.6c-12.9-3.5-26-5.5-39.2-6l0-4.3c0-0.1,0-0.2,0-0.3c0-3.6-2.9-6.5-6.5-6.5
	c-3.6,0-6.5,2.9-6.5,6.5c0,0.1,0,4.7,0,4.7c-13.2,0.5-26.3,2.5-39.2,6l-1.4-4.6L0,13.6l1.5,4.8l0,0C5.2,31,8.8,39.2,12.5,51.9
	c24.5-7.1,50.4-7.1,74.9,0c3.7-12.7,7.4-20.9,11.1-33.6l0,0L100,13.5z M50,3.1c1.9,0,3.5,1.6,3.5,3.5c0,1.9-1.6,3.5-3.5,3.5
	c-1.9,0-3.5-1.6-3.5-3.5C46.5,4.7,48.1,3.1,50,3.1z M9.8,34c-1.5-4.3-3.1-8.8-4.7-13.8c7.1-1.9,14.3-3.4,21.6-4.4l4.5,29.1
	c-5.6,0.8-11.1,1.9-16.6,3.4C13,42.9,11.4,38.4,9.8,34z M34.1,44.5l-4.5-29.1c6.7-0.8,13.5-1.2,20.3-1.2c6.7,0,13.3,0.4,19.9,1.2
	l-4.5,29.1c-5.1-0.6-10.3-0.9-15.4-0.9C44.7,43.5,39.4,43.8,34.1,44.5z M90.2,34c-1.6,4.4-3.2,9-4.8,14.2c-5.6-1.5-11.3-2.6-17-3.4
	l4.5-29.1c7.4,1,14.7,2.5,22,4.4C93.3,25.2,91.7,29.7,90.2,34z"/>
</svg>
