<?xml version="1.0" encoding="utf-8"?>
<!-- Generator: Adobe Illustrator 17.1.0, SVG Export Plug-In . SVG Version: 6.00 Build 0)  -->
<!DOCTYPE svg PUBLIC "-//W3C//DTD SVG 1.1//EN" "http://www.w3.org/Graphics/SVG/1.1/DTD/svg11.dtd">
<svg version="1.1" id="Layer_1" xmlns="http://www.w3.org/2000/svg" xmlns:xlink="http://www.w3.org/1999/xlink" x="0px" y="0px"
	 viewBox="0 0 100 100" style="enable-background:new 0 0 100 100;" xml:space="preserve">
<g>
	<path style="fill-rule:evenodd;clip-rule:evenodd;fill:#FF4600;" d="M100,8H82v0l-0.4-0.1L74.8,24H0v8h0l15.8,40l0.1,0h47.9l0,0.1
		l23-56.1H100V8z M58.5,64H21.2L8.6,32h62.9L58.5,64z"/>
	<path style="fill-rule:evenodd;clip-rule:evenodd;fill:#FF4600;" d="M29.8,86c0,3.3-2.7,6-6,6c-3.3,0-6-2.7-6-6c0-3.3,2.7-6,6-6
		C27.2,80,29.8,82.7,29.8,86z"/>
	<path style="fill-rule:evenodd;clip-rule:evenodd;fill:#FF4600;" d="M61.8,86.1c0,3.3-2.7,6-6,6c-3.3,0-6-2.6-6-5.9s2.7-6.2,6-6.2
		C59.1,80,61.8,82.8,61.8,86.1z"/>
</g>
</svg>
