<?xml version="1.0" encoding="utf-8"?>
<!-- Generator: Adobe Illustrator 17.1.0, SVG Export Plug-In . SVG Version: 6.00 Build 0)  -->
<!DOCTYPE svg PUBLIC "-//W3C//DTD SVG 1.1//EN" "http://www.w3.org/Graphics/SVG/1.1/DTD/svg11.dtd">
<svg version="1.1" id="Layer_2" xmlns="http://www.w3.org/2000/svg" xmlns:xlink="http://www.w3.org/1999/xlink" x="0px" y="0px"
	 viewBox="0 0 175 30" style="enable-background:new 0 0 175 30;" xml:space="preserve">
<g>
	<g>
		<path d="M159.9,0c-2.4,0-4.6,0.5-6.6,1.5l-0.1,0.1c-2,0.9-4.1,1.5-6.4,1.5c-2.3,0-4.5-0.5-6.5-1.5l-0.1,0c-2-1-4.2-1.5-6.6-1.5
			c-8.3,0-15,6.7-15,15c0,8.3,6.7,15,15,15c2.4,0,4.6-0.5,6.6-1.5l0.1,0c2-0.9,4.2-1.5,6.5-1.5c2.3,0,4.5,0.5,6.4,1.5l0.1,0.1
			c2,1,4.2,1.5,6.6,1.5c8.3,0,15-6.7,15-15C174.9,6.7,168.2,0,159.9,0z M159.9,27c-1.8,0-3.6-0.4-5.2-1.2l-0.2-0.1
			c-2.4-1.2-5-1.7-7.7-1.7c-2.7,0-5.3,0.6-7.8,1.8l-0.1,0l-0.1,0c-1.6,0.8-3.3,1.2-5.2,1.2c-6.6,0-12-5.4-12-12c0-6.6,5.4-12,12-12
			c1.8,0,3.6,0.4,5.2,1.2l0.2,0.1c2.4,1.2,5.1,1.8,7.8,1.8c2.7,0,5.3-0.6,7.7-1.7l0.2-0.1c1.6-0.8,3.4-1.2,5.2-1.2
			c6.6,0,12,5.4,12,12C171.9,21.6,166.5,27,159.9,27z"/>
		<path d="M134.1,9.6c-3,0-5.5,2.5-5.5,5.5c0,3,2.5,5.5,5.5,5.5c3,0,5.5-2.5,5.5-5.5C139.6,12.1,137.2,9.6,134.1,9.6z M134.1,17.6
			c-1.4,0-2.5-1.1-2.5-2.5c0-1.4,1.1-2.5,2.5-2.5c1.4,0,2.5,1.1,2.5,2.5C136.6,16.5,135.5,17.6,134.1,17.6z"/>
		<path d="M160.4,9.6c-3,0-5.5,2.5-5.5,5.5c0,3,2.5,5.5,5.5,5.5c3,0,5.5-2.5,5.5-5.5C165.9,12.1,163.4,9.6,160.4,9.6z M160.4,17.6
			c-1.4,0-2.5-1.1-2.5-2.5c0-1.4,1.1-2.5,2.5-2.5c1.4,0,2.5,1.1,2.5,2.5C162.9,16.5,161.8,17.6,160.4,17.6z"/>
	</g>
	<g>
		<path d="M100.6,0C98.3,0,96,0.5,94,1.5l-0.1,0.1C92,2.5,89.8,3,87.5,3C85.2,3,83,2.5,81,1.6l-0.1,0c-2-1-4.2-1.5-6.6-1.5
			c-8.3,0-15,6.7-15,15c0,8.3,6.7,15,15,15c2.4,0,4.6-0.5,6.6-1.5l0.1,0c2-0.9,4.2-1.5,6.5-1.5c2.3,0,4.5,0.5,6.4,1.5l0.1,0.1
			c2,1,4.2,1.5,6.6,1.5c8.3,0,15-6.7,15-15C115.6,6.7,108.9,0,100.6,0z M100.6,27c-1.8,0-3.6-0.4-5.2-1.2l-0.2-0.1
			c-2.4-1.2-5-1.7-7.7-1.7c-2.7,0-5.3,0.6-7.8,1.8l-0.1,0l-0.1,0C78,26.6,76.2,27,74.4,27c-6.6,0-12-5.4-12-12c0-6.6,5.4-12,12-12
			c1.8,0,3.6,0.4,5.2,1.2l0.2,0.1C82.2,5.4,84.8,6,87.5,6c2.7,0,5.3-0.6,7.7-1.7l0.2-0.1C97,3.4,98.8,3,100.6,3c6.6,0,12,5.4,12,12
			C112.6,21.6,107.2,27,100.6,27z"/>
		<path d="M74.9,9.6c-3,0-5.5,2.5-5.5,5.5c0,3,2.5,5.5,5.5,5.5c3,0,5.5-2.5,5.5-5.5C80.4,12.1,77.9,9.6,74.9,9.6z M74.9,17.6
			c-1.4,0-2.5-1.1-2.5-2.5c0-1.4,1.1-2.5,2.5-2.5s2.5,1.1,2.5,2.5C77.4,16.5,76.3,17.6,74.9,17.6z"/>
		<path d="M101.1,9.6c-3,0-5.5,2.5-5.5,5.5c0,3,2.5,5.5,5.5,5.5c3,0,5.5-2.5,5.5-5.5C106.6,12.1,104.2,9.6,101.1,9.6z M101.1,17.6
			c-1.4,0-2.5-1.1-2.5-2.5c0-1.4,1.1-2.5,2.5-2.5s2.5,1.1,2.5,2.5C103.6,16.5,102.5,17.6,101.1,17.6z"/>
	</g>
	<g>
		<path d="M41.4,0c-2.4,0-4.6,0.5-6.6,1.5l-0.1,0.1c-2,0.9-4.1,1.5-6.4,1.5c-2.3,0-4.5-0.5-6.5-1.5l-0.1,0c-2-1-4.2-1.5-6.6-1.5
			c-8.3,0-15,6.7-15,15c0,8.3,6.7,15,15,15c2.4,0,4.6-0.5,6.6-1.5l0.1,0c2-0.9,4.2-1.5,6.5-1.5c2.3,0,4.5,0.5,6.4,1.5l0.1,0.1
			c2,1,4.2,1.5,6.6,1.5c8.3,0,15-6.7,15-15C56.4,6.7,49.7,0,41.4,0z M41.4,27c-1.8,0-3.6-0.4-5.2-1.2L36,25.7
			c-2.4-1.2-5-1.7-7.7-1.7c-2.7,0-5.3,0.6-7.8,1.8l-0.1,0l-0.1,0C18.7,26.6,17,27,15.1,27c-6.6,0-12-5.4-12-12c0-6.6,5.4-12,12-12
			c1.8,0,3.6,0.4,5.2,1.2l0.2,0.1C22.9,5.4,25.5,6,28.3,6C31,6,33.6,5.4,36,4.3l0.2-0.1C37.8,3.4,39.5,3,41.4,3c6.6,0,12,5.4,12,12
			C53.4,21.6,48,27,41.4,27z"/>
		<path d="M15.6,9.6c-3,0-5.5,2.5-5.5,5.5c0,3,2.5,5.5,5.5,5.5c3,0,5.5-2.5,5.5-5.5C21.1,12.1,18.7,9.6,15.6,9.6z M15.6,17.6
			c-1.4,0-2.5-1.1-2.5-2.5c0-1.4,1.1-2.5,2.5-2.5s2.5,1.1,2.5,2.5C18.1,16.5,17,17.6,15.6,17.6z"/>
		<path d="M41.9,9.6c-3,0-5.5,2.5-5.5,5.5c0,3,2.5,5.5,5.5,5.5c3,0,5.5-2.5,5.5-5.5C47.4,12.1,44.9,9.6,41.9,9.6z M41.9,17.6
			c-1.4,0-2.5-1.1-2.5-2.5c0-1.4,1.1-2.5,2.5-2.5c1.4,0,2.5,1.1,2.5,2.5C44.4,16.5,43.3,17.6,41.9,17.6z"/>
	</g>
</g>
</svg>
