<?xml version="1.0" encoding="utf-8"?>
<!-- Generator: Adobe Illustrator 17.1.0, SVG Export Plug-In . SVG Version: 6.00 Build 0)  -->
<!DOCTYPE svg PUBLIC "-//W3C//DTD SVG 1.1//EN" "http://www.w3.org/Graphics/SVG/1.1/DTD/svg11.dtd">
<svg version="1.1" id="Layer_1" xmlns="http://www.w3.org/2000/svg" xmlns:xlink="http://www.w3.org/1999/xlink" x="0px" y="0px"
	 viewBox="0 0 64 64" enable-background="new 0 0 64 64" xml:space="preserve">
<g>
	<path d="M59,44.7c1.9-4,3-8.5,3-13.3c0-17.1-13.9-31-31-31c-17.1,0-31,13.9-31,31c0,17.1,13.9,31,31,31c5.4,0,10.4-1.4,14.8-3.8
		L64,63.6L59,44.7z M55.7,55.2L45,52.4L43,53.5c-3.6,2-7.8,3-12,3c-13.8,0-25.1-11.3-25.1-25.1C5.9,17.6,17.2,6.3,31,6.3
		c13.8,0,25.1,11.3,25.1,25.1c0,3.7-0.8,7.3-2.5,10.8l-0.9,2L55.7,55.2z"/>
	<path fill-rule="evenodd" clip-rule="evenodd" d="M18.7,21.7h23.6v5.9H18.7V21.7z"/>
	<path fill-rule="evenodd" clip-rule="evenodd" d="M18.7,33.5h23.6v5.9H18.7V33.5z"/>
</g>
</svg>
