<svg id="Layer_1" data-name="Layer 1" xmlns="http://www.w3.org/2000/svg" width="73" height="73" viewBox="0 0 73 73">
  <title>facebook</title>
  <path d="M37.5,2A35.5,35.5,0,1,1,2,37.5,35.54,35.54,0,0,1,37.5,2m0-1A36.5,36.5,0,1,0,74,37.5,36.5,36.5,0,0,0,37.5,1h0Z" transform="translate(-1 -1)"/>
  <path d="M32.42,26.32v5.36H28.56v6.55h3.87v18h7.94v-18h5.33s0.5-3.14.74-6.58h-6V27.18a1.89,1.89,0,0,1,1.72-1.57h4.33V18.79H40.56C32.23,18.79,32.42,25.35,32.42,26.32Z" transform="translate(-1 -1)"/>
</svg>
