<?xml version="1.0" encoding="utf-8"?>
<!-- Generator: Adobe Illustrator 17.1.0, SVG Export Plug-In . SVG Version: 6.00 Build 0)  -->
<!DOCTYPE svg PUBLIC "-//W3C//DTD SVG 1.1//EN" "http://www.w3.org/Graphics/SVG/1.1/DTD/svg11.dtd">
<svg version="1.1" id="Layer_1" xmlns="http://www.w3.org/2000/svg" xmlns:xlink="http://www.w3.org/1999/xlink" x="0px" y="0px"
	 viewBox="0 0 100 100" style="enable-background:new 0 0 100 100;" xml:space="preserve">
<g>
	<path style="fill-rule:evenodd;clip-rule:evenodd;fill:#FF4600;" d="M68,4.6c-7.5,0-15.1,5.5-18.1,11.6C47.2,10,39.4,4.6,32.2,4.6
		C13.8,4.6,0,19.5,0,39.1c0,23.7,33.8,46.2,44.1,52.6l6,3.7l6-3.7c7.3-4.5,43.9-28,43.9-52.6C100,19.5,86.3,4.6,68,4.6z M50.1,81.9
		c0,0-38.6-23.7-38.6-42.7c0-11.5,7.1-23,20.7-23c12.4,0,17.9,17.5,17.9,17.5S54.9,16.1,68,16.1c13.1,0,20.5,11.3,20.5,23
		C88.5,58.4,50.1,81.9,50.1,81.9z"/>
</g>
</svg>
