<?xml version="1.0" encoding="utf-8"?>
<!-- Generator: Adobe Illustrator 17.1.0, SVG Export Plug-In . SVG Version: 6.00 Build 0)  -->
<!DOCTYPE svg PUBLIC "-//W3C//DTD SVG 1.1//EN" "http://www.w3.org/Graphics/SVG/1.1/DTD/svg11.dtd">
<svg version="1.1" id="Layer_1" xmlns="http://www.w3.org/2000/svg" xmlns:xlink="http://www.w3.org/1999/xlink" x="0px" y="0px"
	 viewBox="0 0 64 64" enable-background="new 0 0 64 64" xml:space="preserve">
<g>
	<path d="M44.5,8.5c8,0,16.5,4.6,16.5,17.4c0,9.8-14,20.3-25.8,27.4c-0.3,0.2-0.6,0.4-0.9,0.5L32,55.2l-2.3-1.4l-0.9-0.5
		C22.5,49.3,3,37.5,3,25.9C3,19.4,5.2,8.5,19.6,8.5c6.8,0,10,6.3,10.5,7.6l1.7,3.9l1.9-3.8C34.6,14.3,38.1,8.5,44.5,8.5 M44.5,6.5
		c-6.7,0-10.8,5.4-12.5,8.8c-1.6-3.5-5.6-8.8-12.4-8.8C9.3,6.5,1,12.1,1,25.9c0,13.3,21.8,26,27.7,29.6l3.4,2.1l3.4-2.1
		C39.5,52.9,63,39.7,63,25.9C63,13,54.7,6.5,44.5,6.5L44.5,6.5z"/>
</g>
</svg>
