<svg id="Layer_1" data-name="Layer 1" xmlns="http://www.w3.org/2000/svg" width="73" height="73" viewBox="0 0 73 73">
  <title>instagram</title>
  <path d="M37.5,2A35.5,35.5,0,1,1,2,37.5,35.54,35.54,0,0,1,37.5,2m0-1A36.5,36.5,0,1,0,74,37.5,36.5,36.5,0,0,0,37.5,1h0Z" transform="translate(-1 -1)"/>
  <path d="M50.78,20.08H24.22a4.14,4.14,0,0,0-4.14,4.13V50.79a4.14,4.14,0,0,0,4.14,4.13H50.78a4.14,4.14,0,0,0,4.14-4.13V24.21A4.14,4.14,0,0,0,50.78,20.08ZM44.28,25a1,1,0,0,1,1-1H50a1,1,0,0,1,1,1v4.7a1,1,0,0,1-1,1H45.26a1,1,0,0,1-1-1V25Zm-6.74,5.83a6.69,6.69,0,1,1-6.7,6.69A6.69,6.69,0,0,1,37.54,30.85ZM51,49.9a1,1,0,0,1-1,1H25a1,1,0,0,1-1-1V34.74h3.26a10.6,10.6,0,1,0,20.45,0H51V49.9Z" transform="translate(-1 -1)"/>
</svg>
