<?xml version="1.0" encoding="utf-8"?>
<!-- Generator: Adobe Illustrator 19.2.0, SVG Export Plug-In . SVG Version: 6.00 Build 0)  -->
<svg version="1.1" id="Layer_1" xmlns="http://www.w3.org/2000/svg" xmlns:xlink="http://www.w3.org/1999/xlink" x="0px" y="0px"
	 width="52px" height="21px" viewBox="0 0 52 21" enable-background="new 0 0 52 21" xml:space="preserve">
<path fill="#666666" d="M17.2,0.8c3.9,0,7,2.5,7,7.3c0,5.2-8.9,10.2-10.4,11.2l-1.3,0.8l-1.3-0.8C9,18,0.8,13.2,0.8,8.1
	c0-5.2,3.1-7.3,7-7.3c2.6,0,4.7,2.3,4.7,3.6C12.5,3.1,14.7,0.8,17.2,0.8 M17.2,0c-1.9,0-3.7,1.1-4.7,2.4C11.5,1.2,9.8,0,7.8,0
	C2.9,0,0,3,0,8.1c0,5.3,7.6,9.9,10.5,11.7l0.3,0.2l1.3,0.8l0.4,0.2l0.4-0.2l1.3-0.8c0.1-0.1,0.2-0.1,0.3-0.2
	c7-4.2,10.5-8.1,10.5-11.7C25,3.2,21.9,0,17.2,0L17.2,0z"/>
<path fill="#FFFFFF" d="M44.2,0.8c3.9,0,7,2.5,7,7.3c0,5.2-8.9,10.2-10.4,11.2l-1.3,0.8l-1.3-0.8C36,18,27.8,13.2,27.8,8.1
	c0-5.2,3.1-7.3,7-7.3c2.6,0,4.7,2.3,4.7,3.6C39.5,3.1,41.7,0.8,44.2,0.8 M44.2,0c-1.9,0-3.7,1.1-4.7,2.4c-1-1.3-2.7-2.4-4.7-2.4
	C29.9,0,27,3,27,8.1c0,5.3,7.6,9.9,10.5,11.7l0.3,0.2l1.3,0.8l0.4,0.2l0.4-0.2l1.3-0.8c0.1-0.1,0.2-0.1,0.3-0.2
	c7-4.2,10.5-8.1,10.5-11.7C52,3.2,48.9,0,44.2,0L44.2,0z"/>
</svg>
