<?xml version="1.0" encoding="utf-8"?>
<!-- Generator: Adobe Illustrator 19.2.0, SVG Export Plug-In . SVG Version: 6.00 Build 0)  -->
<svg version="1.1" id="Layer_2" xmlns="http://www.w3.org/2000/svg" xmlns:xlink="http://www.w3.org/1999/xlink" x="0px" y="0px"
	 width="170px" height="34px" viewBox="0 0 170 34" enable-background="new 0 0 170 34" xml:space="preserve">
<path fill="#FFFFFF" d="M63.4,11.6c-0.4,0.9-1.4,1.6-2.9,1.6l-25.6,0c0,0,0.7-1.5,0.8-1.8c1-3.1,4.3-5,9.6-5h20.4L63.4,11.6z
	 M28.2,29.2c-1.1,3.7,1.1,4.8,5.3,4.8h20.1l3-6.8c0,0-11,0-19.5,0c-0.3,0-0.7-0.2-0.5-0.8c1.1-2.5,4.6-10.4,4.6-10.4h-7.4
	c0,0-3.5,7.9-4.6,10.4C28.8,27.5,28.2,29.2,28.2,29.2z M37.8,0H17.5c-5.3,0-8.6,1.9-9.6,5C7.7,5.3,7,6.8,7,6.8l25.6,0
	c1.5,0,2.5-0.6,2.9-1.6L37.8,0z M0.3,22.8c-1.1,3.7,1.1,4.8,5.3,4.8h20.1l3-6.8c0,0-11,0-19.5,0c-0.3,0-0.7-0.2-0.5-0.8
	c1.1-2.5,4.6-10.4,4.6-10.4H6c0,0-3.5,7.9-4.6,10.4C0.9,21.1,0.3,22.8,0.3,22.8z"/>
<path fill="#FFFFFF" d="M126.4,6.9h4.9V17h-4.9V6.9z M85.9,13.2l2-2V8.8l-1.9-1.9H72V17h4.8v-2.9h4.5l1.8,2.9h5.1L85.9,13.2z
	 M83,11.3h-6.2V9.6H83V11.3z M101.3,6.9h-7.2L88.7,17h4.9l0.7-1.4h6.4l0.7,1.4h5.5L101.3,6.9z M95.7,12.7l1.7-3.4l1.7,3.4H95.7z
	 M124,11.2v-2l-2.3-2.3h-12l-2.2,2.2v5.8l2.2,2.2h12l2.3-2.3v-2.1h-4.8v1.5h-6.8V9.8h6.9v1.4H124z M145.6,6.9v7l-3.5-7h-7.4V17h4.3
	v-7l3.5,7h7.4V6.9H145.6z M169.2,9.8v-1l-2-2h-12.5l-2.2,2.2v5.8l2.2,2.2h12.6l1.8-1.8v-4.3h-9.9v2.2h5.1v1.2h-7V9.8h7.1L169.2,9.8z
	"/>
<path fill="#FFFFFF" d="M72,22.5h1.8l1.9,10.4l1.9-10.4h1.8V34h-1.1V23.4l-2,10.6H75l-2-10.6V34h-1V22.5z M81,32.9V27l1.2-1.2h2.2
	l1.2,1.2v5.9L84.3,34h-2.2L81,32.9z M83.8,33.2l0.6-0.6v-5.4l-0.6-0.6h-1.2L82,27.3v5.4l0.6,0.6H83.8z M87.4,32.9v-6.2h-1v-0.9h1
	v-2.4h1v2.4h1.8v0.9h-1.8v5.9l0.6,0.6h1.3V34h-1.7L87.4,32.9z M91.4,32.9V27l1.2-1.2h2.2l1.2,1.2v5.9L94.7,34h-2.2L91.4,32.9z
	 M94.2,33.2l0.6-0.6v-5.4l-0.6-0.6H93l-0.6,0.6v5.4l0.6,0.6H94.2z M97.5,25.8h0.8l0.1,1.3l1.3-1.3h0.9v0.9h-0.8L98.6,28v6h-1V25.8z
	 M101.8,25.8h0.8l0.1,1.3l1.3-1.3h0.9v0.9h-0.8l-1.3,1.3v6h-1V25.8z M105.5,32.9v-2.5l1.2-1.2h2.3v-1.9l-0.6-0.6h-1.1l-0.6,0.6v1h-1
	V27l1.2-1.2h2L110,27v7h-0.8l-0.1-1.2L108,34h-1.3L105.5,32.9z M107.8,33.2l1.1-1.1V30h-1.7l-0.7,0.7v2l0.6,0.6H107.8z M111.6,32.9
	V27l1.2-1.2h1.3l1.1,1.1v-4.4h1V34h-0.8l0-1.2l-1.2,1.2h-1.3L111.6,32.9z M113.9,33.2l1.2-1.2v-4.2l-1.2-1.2h-0.6l-0.6,0.6v5.4
	l0.6,0.6H113.9z M120.5,22.5h3.5l1.2,1.2v4.4l-1.2,1.2h-2.4V34h-1.1V22.5z M123.5,28.4l0.7-0.7v-3.6l-0.7-0.7h-1.9v5H123.5z
	 M126.6,25.8h0.8l0.1,1.3l1.3-1.3h1.1l1.2,1.2v7h-1v-6.8l-0.6-0.6h-0.4l-1.2,1.2V34h-1V25.8z M132.5,32.9V27l1.2-1.2h2.1l1.2,1.2
	v3.2h-3.4v2.5l0.6,0.6h1.1l0.6-0.6v-1h1v1.3l-1.2,1.2h-2.1L132.5,32.9z M135.9,29.3v-2.1l-0.6-0.6h-1.1l-0.6,0.6v2.1H135.9z
	 M138.4,32.9v-7h1v6.8l0.6,0.6h0.4l1.2-1.2v-6.1h1V34H142l-0.1-1.3l-1.3,1.3h-1.1L138.4,32.9z M143.9,27.8h2.8v1h-2.8V27.8z
	 M147.8,22.5h1v4.4l1.1-1.1h1.1l1.2,1.2v7h-1v-6.8l-0.6-0.6h-0.4l-1.2,1.2V34h-1V22.5z M153.5,32.9v-2.5l1.2-1.2h2.3v-1.9l-0.6-0.6
	h-1.1l-0.6,0.6v1h-1V27l1.2-1.2h2L158,27v7h-0.8l-0.1-1.2L156,34h-1.3L153.5,32.9z M155.8,33.2l1.1-1.1V30h-1.7l-0.7,0.7v2l0.6,0.6
	H155.8z M159.7,32.9v-7h1v6.8l0.6,0.6h0.4L163,32v-6.1h1V34h-0.8l-0.1-1.3l-1.3,1.3h-1.1L159.7,32.9z M165.6,33v-1.3h1v1l0.5,0.5
	h1.2l0.6-0.6v-1.9l-0.4-0.4h-2l-0.9-0.9V27l1.2-1.2h2.1l1.1,1.1v1.3h-1v-1l-0.5-0.5h-1.1l-0.6,0.6v1.9l0.4,0.4h2l0.9,0.9v2.5
	l-1.2,1.2h-2.2L165.6,33z"/>
</svg>
