<?xml version="1.0" encoding="utf-8"?>
<!-- Generator: Adobe Illustrator 17.1.0, SVG Export Plug-In . SVG Version: 6.00 Build 0)  -->
<!DOCTYPE svg PUBLIC "-//W3C//DTD SVG 1.1//EN" "http://www.w3.org/Graphics/SVG/1.1/DTD/svg11.dtd">
<svg version="1.1" id="Layer_1" xmlns="http://www.w3.org/2000/svg" xmlns:xlink="http://www.w3.org/1999/xlink" x="0px" y="0px"
	 viewBox="0 0 64 64" style="enable-background:new 0 0 64 64;" xml:space="preserve">
<path d="M37.5,4C25.1,4,15,14.1,15,26.5c0,5.1,1.7,9.7,4.5,13.5L5,54.4l0,0c-0.6,0.6-1,1.4-1,2.3C4,58.6,5.4,60,7.2,60
	c0.9,0,1.7-0.4,2.3-1l0,0L24,44.5c3.8,2.8,8.4,4.5,13.5,4.5C49.9,49,60,38.9,60,26.5C60,14.1,49.9,4,37.5,4z M37.5,42.6
	c-8.9,0-16.1-7.2-16.1-16.1c0-8.9,7.2-16.1,16.1-16.1c8.9,0,16.1,7.2,16.1,16.1C53.6,35.4,46.4,42.6,37.5,42.6z"/>
</svg>
