<?xml version="1.0" encoding="utf-8"?>
<!-- Generator: Adobe Illustrator 17.1.0, SVG Export Plug-In . SVG Version: 6.00 Build 0)  -->
<!DOCTYPE svg PUBLIC "-//W3C//DTD SVG 1.1//EN" "http://www.w3.org/Graphics/SVG/1.1/DTD/svg11.dtd">
<svg version="1.1" xmlns="http://www.w3.org/2000/svg" xmlns:xlink="http://www.w3.org/1999/xlink" x="0px" y="0px"
	 viewBox="0 0 400 40" enable-background="new 0 0 400 40" xml:space="preserve">
<g id="Layer_1">
	<g>
		<g>
			<path fill="#999999" d="M396.8,1.3l-36.1,37.3H4c-1.5,0-2.7-1.2-2.7-2.7V4c0-1.5,1.2-2.7,2.7-2.7H396.8 M400,0H4C1.7,0,0,1.7,0,4
				v32c0,2.3,1.7,4,4,4h357.3L400,0L400,0z"/>
		</g>
		
			<text transform="matrix(1 0 0 1 12 24.9358)" fill="#999999" font-family="'Geogrotesque-Regular'" font-size="16" letter-spacing="1">By size</text>
	</g>
</g>
<g id="Layer_2">
	<g>
		<g>
			<path fill="#999999" d="M3.2,38.7L39.3,1.3H396c1.5,0,2.7,1.2,2.7,2.7v32c0,1.5-1.2,2.7-2.7,2.7H3.2 M0,40h396c2.3,0,4-1.7,4-4V4
				c0-2.3-1.7-4-4-4L38.7,0L0,40L0,40z"/>
		</g>
		
			<text transform="matrix(1 0 0 1 300.5616 24.9358)" fill="#999999" font-family="'Geogrotesque-Regular'" font-size="16" letter-spacing="1">By vehicle</text>
	</g>
</g>
</svg>
