<svg id="Layer_1" data-name="Layer 1" xmlns="http://www.w3.org/2000/svg" width="298" height="73" viewBox="0 0 298 73">
  <title>social_icons_sprite</title>
  <path d="M262.5,2A35.5,35.5,0,1,1,227,37.5,35.54,35.54,0,0,1,262.5,2m0-1A36.5,36.5,0,1,0,299,37.5,36.5,36.5,0,0,0,262.5,1h0Z" transform="translate(-1 -1)"/>
  <path d="M37.5,2A35.5,35.5,0,1,1,2,37.5,35.54,35.54,0,0,1,37.5,2m0-1A36.5,36.5,0,1,0,74,37.5,36.5,36.5,0,0,0,37.5,1h0Z" transform="translate(-1 -1)"/>
  <path d="M112.5,2A35.5,35.5,0,1,1,77,37.5,35.54,35.54,0,0,1,112.5,2m0-1A36.5,36.5,0,1,0,149,37.5,36.5,36.5,0,0,0,112.5,1h0Z" transform="translate(-1 -1)"/>
  <path d="M187.5,2A35.5,35.5,0,1,1,152,37.5,35.54,35.54,0,0,1,187.5,2m0-1A36.5,36.5,0,1,0,224,37.5,36.5,36.5,0,0,0,187.5,1h0Z" transform="translate(-1 -1)"/>
  <path d="M263.45,17.15c-11.11,0-16.71,8-16.71,14.6,0,4,1.52,7.6,4.79,8.93a0.8,0.8,0,0,0,1.17-.59c0.11-.41.36-1.45,0.48-1.88a1.13,1.13,0,0,0-.34-1.3,6.74,6.74,0,0,1-1.54-4.58,11.07,11.07,0,0,1,11.51-11.2c6.28,0,9.73,3.84,9.73,9,0,6.74-3,12.43-7.41,12.43a3.62,3.62,0,0,1-3.69-4.5c0.7-3,2.06-6.16,2.06-8.29,0-1.91-1-3.51-3.15-3.51-2.5,0-4.51,2.59-4.51,6.05a9,9,0,0,0,.75,3.7l-3,12.74a26.24,26.24,0,0,0-.07,8.88,0.31,0.31,0,0,0,.56.13,25,25,0,0,0,4.22-7.65c0.29-1,1.64-6.43,1.64-6.43,0.81,1.55,3.19,2.91,5.71,2.91,7.51,0,12.61-6.85,12.61-16C278.25,23.61,272.38,17.15,263.45,17.15Z" transform="translate(-1 -1)"/>
  <path d="M32.42,26.32v5.36H28.56v6.55h3.87v18h7.94v-18h5.33s0.5-3.14.74-6.58h-6V27.18a1.89,1.89,0,0,1,1.72-1.57h4.33V18.79H40.56C32.23,18.79,32.42,25.35,32.42,26.32Z" transform="translate(-1 -1)"/>
  <path d="M130.55,26.3a14.73,14.73,0,0,1-4.25,1.17,7.42,7.42,0,0,0,3.25-4.1,14.82,14.82,0,0,1-4.7,1.8,7.41,7.41,0,0,0-12.62,6.76A21,21,0,0,1,97,24.19a7.41,7.41,0,0,0,2.29,9.89,7.36,7.36,0,0,1-3.35-.93v0.09a7.41,7.41,0,0,0,5.94,7.26,7.43,7.43,0,0,1-2,.26,7.28,7.28,0,0,1-1.39-.14,7.41,7.41,0,0,0,6.92,5.14,14.87,14.87,0,0,1-9.2,3.17,15.49,15.49,0,0,1-1.77-.1,21,21,0,0,0,11.35,3.33c13.62,0,21.07-11.28,21.07-21.07,0-.32,0-0.64,0-1A15,15,0,0,0,130.55,26.3Z" transform="translate(-1 -1)"/>
  <path d="M200.78,20.08H174.22a4.14,4.14,0,0,0-4.14,4.13V50.79a4.14,4.14,0,0,0,4.14,4.13h26.56a4.14,4.14,0,0,0,4.14-4.13V24.21A4.14,4.14,0,0,0,200.78,20.08ZM194.28,25a1,1,0,0,1,1-1H200a1,1,0,0,1,1,1v4.7a1,1,0,0,1-1,1h-4.71a1,1,0,0,1-1-1V25Zm-6.74,5.83a6.69,6.69,0,1,1-6.7,6.69A6.69,6.69,0,0,1,187.54,30.85ZM201,49.9a1,1,0,0,1-1,1H175a1,1,0,0,1-1-1V34.74h3.26a10.6,10.6,0,1,0,20.45,0H201V49.9Z" transform="translate(-1 -1)"/>
</svg>
