<?xml version="1.0" encoding="utf-8"?>
<!-- Generator: Adobe Illustrator 17.1.0, SVG Export Plug-In . SVG Version: 6.00 Build 0)  -->
<!DOCTYPE svg PUBLIC "-//W3C//DTD SVG 1.1//EN" "http://www.w3.org/Graphics/SVG/1.1/DTD/svg11.dtd">
<svg version="1.1" id="Layer_1" xmlns="http://www.w3.org/2000/svg" xmlns:xlink="http://www.w3.org/1999/xlink" x="0px" y="0px"
	 viewBox="0 0 64 64" enable-background="new 0 0 64 64" xml:space="preserve">
<g>
	<path d="M47.9,17.1L61.2,32L47.9,46.9H2V17.1H47.9 M48.7,15H0v34h48.8L64,32L48.7,15L48.7,15z"/>
	<path d="M44.7,27.6c2.2,0,4.3,2.1,4.3,4.5c0,2.3-2.1,4.2-4.3,4.2c-2.2,0-4-1.9-4-4.2C40.7,29.8,42.5,27.6,44.7,27.6 M44.7,25.5
		c-3.3,0-6,3-6,6.6c0,3.5,2.7,6.4,6,6.4c3.4,0,6.4-2.9,6.4-6.4C51,28.6,48.1,25.5,44.7,25.5L44.7,25.5z"/>
</g>
</svg>
