<?xml version="1.0" encoding="utf-8"?>
<!-- Generator: Adobe Illustrator 20.0.0, SVG Export Plug-In . SVG Version: 6.00 Build 0)  -->
<svg version="1.1" id="Layer_1" xmlns="http://www.w3.org/2000/svg" xmlns:xlink="http://www.w3.org/1999/xlink" x="0px" y="0px"
	 viewBox="0 0 210 60" style="enable-background:new 0 0 210 60;" xml:space="preserve">
<style type="text/css">
	.st0{fill:#666666;}
</style>
<path id="guma" class="st0" d="M57.3,57.4h3.5c12.7-8.5,27.7-13,43-12.9c15.3,0,30.2,4.5,43,12.9h3.5
	C122.5,37.5,85.1,37.5,57.3,57.4z M103.8,7.5C65.9,7.5,30.4,26.1,9,57.4h1.2c35.9-51.7,107-64.5,158.7-28.5
	c11.1,7.7,20.8,17.4,28.5,28.5h1.2C177.2,26.1,141.7,7.5,103.8,7.5z M2.4,57.4c0.6-1,1.3-2,2-3l0.4,3h0.8l4.6-6.3l-0.6-3.9
	c1-1.3,2.1-2.6,3.2-3.8l0.1,3l0,0v1l0.7-0.7l0,0l5.5-5.8L19,36.7c1.2-1.2,2.5-2.4,3.7-3.5l-0.3,4.1l0.5-0.4l0,0l6.3-5.4l0.3-4
	c1.3-1,2.6-2,4-3l-0.8,4l0.6-0.4l0,0l7-4.5l0.8-4.1c1.4-0.9,2.8-1.7,4.3-2.5l-1.3,3.8l0.6-0.3l0,0l7.5-3.7l1.3-3.9
	c1.5-0.7,3.1-1.4,4.6-2l-1.6,3.6l0.6-0.2l7.8-2.9l1.6-3.5c1.7-0.6,3.4-1.1,5.2-1.6L70,9l-0.5,0.8l0.7-0.2l8.1-1.9l2.2-3.5
	c1.6-0.3,3.2-0.6,4.9-0.9L83,6.4l1-0.1l7.9-1l2.4-3L99.9,2l-2.5,2.7h9l2.6-2.6c1.8,0.1,3.7,0.2,5.5,0.4l-3.2,2.6l0.7,0.1h0.3l7,0.7
	l0,0l1,0.1l2.9-2.4c1.8,0.3,3.6,0.6,5.3,1l-2.7,1.6L125,6.7l0.7,0.2L126,7l0,0l6.8,1.5l0,0l1,0.2l3.2-2.1c1.8,0.5,3.5,1,5.2,1.6
	l-3.8,1.8l0.6,0.2l6.9,2.5l0.9,0.3l3.6-1.7c1.6,0.7,3.1,1.3,4.6,2.1l-3.9,1.3l0.6,0.3l0,0l6.5,3.3l0.9,0.5l3.8-1.2
	c1.5,0.8,2.9,1.7,4.4,2.6l-4,0.8l0.6,0.4l0.2,0.1h0.1l5.8,4l0.8,0.6l4.1-0.8c1.1,0.8,2.2,1.7,3.3,2.5l-4.1,0.5l0.8,0.6l5.5,4.4l0,0
	l0.8,0.6l3.7-0.4c1.2,1.1,2.3,2.2,3.5,3.3l-4.1-0.1l0.5,0.5l0.2,0.2l0,0l4.9,5l0.7,0.7l3.9,0.1l3.3,3.9l-3.8-0.5l0.6,0.8l4.3,5.5
	l0,0l0.6,0.8l3.5,0.4c0.7,1.1,1.4,2.1,2.1,3.2h2.4C171.5,0,95.8-17.2,38.6,18.8C23,28.6,9.8,41.8,0,57.4C0,57.4,2.4,57.4,2.4,57.4z
	 M202.5,53.4l-2.6-0.3l-4.3-5.5l2.8,0.4C199.9,49.7,201.2,51.6,202.5,53.4L202.5,53.4z M193.9,42.5l-3-0.1l-4.9-5l3.1,0.1
	C190.8,39.1,192.4,40.8,193.9,42.5z M184.2,32.8l-2.8,0.3l-5.5-4.4l3.1-0.4C180.8,29.8,182.6,31.3,184.2,32.8L184.2,32.8z
	 M174.2,24.7l-3.2,0.6l-5.8-4l3.1-0.6C170.3,22,172.3,23.3,174.2,24.7L174.2,24.7z M162.2,17.1l-2.9,1l-6.2-3.2l3-1
	C158.2,14.9,160.2,16,162.2,17.1L162.2,17.1z M149.7,11l-2.8,1.3l-6.6-2.4l2.9-1.4C145.4,9.3,147.5,10.2,149.7,11L149.7,11z
	 M136.1,6.4L133.6,8l-6.8-1.6l2.6-1.7C131.7,5.2,133.9,5.8,136.1,6.4z M122.2,3.4L120,5.2l-7-0.7l2.4-2C117.7,2.8,120,3,122.2,3.4z
	 M103.8,2c1.4,0,2.8,0,4.2,0.1L106.1,4h-7l2-2C101.1,2,103.8,2,103.8,2z M93.5,2.4l-1.8,2.3l-6.9,0.9l1.8-2.4
	C88.8,2.9,91.1,2.6,93.5,2.4z M79.7,4.4L78,7.1l-6.8,1.6L72.9,6C75.1,5.4,77.4,4.9,79.7,4.4z M65.8,8.1l-1.2,2.7L58,13.2l1.3-2.7
	C61.4,9.7,63.6,8.9,65.8,8.1z M52.8,13.3l-1,3l-6.3,3.1l1-2.9C48.5,15.4,50.6,14.3,52.8,13.3z M34.5,23.9c1.9-1.3,3.9-2.6,5.9-3.9
	l-0.6,3.1l-5.9,3.8L34.5,23.9z M23.6,32.5c1.7-1.5,3.5-3.1,5.3-4.5l-0.3,3.1l-5.2,4.6L23.6,32.5z M18.4,37.4l0.1,3.2l-4.9,5
	l-0.1-3.1C15.2,40.8,16.8,39.1,18.4,37.4z M9.1,48l0.4,3l-4.1,5.6l-0.5-3C6.3,51.7,7.7,49.8,9.1,48z M89.5,35.9
	c0,0.3-0.2,0.7-0.6,0.7c0,0,0,0-0.1,0l-2.3,0.3c-0.2,0.1-0.5-0.1-0.5-0.3c0-0.1,0-0.2,0-0.2l1.9-16.5c0-0.4,0.2-0.7,0.6-0.7
	c0,0,0,0,0,0l2.3-0.3c0.2-0.1,0.5,0,0.5,0.3c0,0.1,0,0.2,0,0.3L89.5,35.9z"/>
<path id="zollNum" d="M129.3,30.7l0.8,5.4c0.1,0.4-0.3,0.6-0.7,0.5l-2.1-0.5c-0.3-0.1-0.5-0.4-0.4-0.7l-0.7-4.8l-1.5-0.4l-1.1,4.4
	c0,0.3-0.2,0.5-0.5,0.5c-0.1,0-0.1,0-0.2,0l-2.2-0.5c-0.3,0-0.5-0.3-0.5-0.6c0-0.1,0-0.1,0-0.2l3-12.4c0-0.3,0.2-0.5,0.5-0.5
	c0.1,0,0.1,0,0.2,0l4.3,1c3.7,0.9,4.6,2.9,4.2,4.6l-0.4,1.7C131.8,29.6,130.7,30.6,129.3,30.7z M126,24.2l-0.8,3.2l1.5,0.4
	c1,0.2,1.9,0.1,2.1-0.9l0.1-0.6c0.2-0.9-0.5-1.5-1.5-1.7L126,24.2z M142.2,26.2c0.3,0.1,0.5,0.2,0.3,0.7L138.8,37l2.3,0.9
	c0.3,0,0.5,0.3,0.4,0.6c0,0.1,0,0.1-0.1,0.2l-0.6,1.5c-0.1,0.3-0.3,0.5-0.6,0.4c-0.1,0-0.1,0-0.2-0.1l-7.8-2.9
	c-0.3,0-0.5-0.3-0.4-0.6c0-0.1,0-0.1,0.1-0.2l0.6-1.5c0-0.3,0.3-0.5,0.6-0.4c0.1,0,0.1,0,0.2,0.1l2.4,0.9l2.8-7.6l-2.5-0.5
	c-0.3,0-0.5-0.2-0.5-0.5c0-0.1,0-0.2,0.1-0.2l0.6-1.5c0.1-0.3,0.4-0.5,0.7-0.4c0,0,0.1,0,0.1,0L142.2,26.2z M156.9,33.2
	c0.3,0.1,0.4,0.3,0.4,0.6c0,0.1,0,0.1-0.1,0.2l-0.7,1.4c-0.1,0.1-0.2,0.3-0.3,0.3l-9.2,7.3c-0.3,0.3-0.7,0.4-1,0.2l-2.1-1.1
	c-0.4-0.2-0.5-0.5-0.1-0.7l9.1-7.2l-5.3-2.7c-0.3-0.1-0.4-0.4-0.4-0.6c0-0.1,0-0.1,0.1-0.2l0.7-1.4c0.1-0.3,0.4-0.4,0.6-0.3
	c0.1,0,0.1,0.1,0.2,0.1L156.9,33.2z"/>
<path id="hoeheNum" d="M102.1,18.7c0.3-0.1,0.5,0.1,0.6,0.3c0,0.1,0,0.1,0,0.2l0.1,1.6c0.1,0.3-0.1,0.5-0.4,0.6c-0.1,0-0.1,0-0.2,0
	l-5,0.2l0.1,2h1c3.8-0.1,5.1,1.6,5.2,3.3l0.1,2.4c0.1,1.8-1.1,3.5-4.9,3.7s-5.1-1.6-5.2-3.3v-0.7c-0.1-0.3,0.1-0.5,0.3-0.6
	c0.1,0,0.1,0,0.2,0l2.1-0.1c0.3-0.1,0.5,0.1,0.6,0.4c0,0.1,0,0.1,0,0.2V29c0,0.9,0.8,1.3,1.8,1.3s1.7-0.4,1.7-1.4v-1.4
	c0-0.9-0.7-1.3-1.7-1.3l-3.8,0.1c-0.3,0.1-0.5-0.1-0.6-0.4c0-0.1,0-0.1,0-0.2l-0.2-6.2c-0.1-0.3,0.1-0.5,0.3-0.6c0.1,0,0.1,0,0.2,0
	L102.1,18.7z M115,19.5c0.3,0,0.5,0.1,0.6,0.4c0,0.1,0,0.1,0,0.2l-0.1,1.6c0,0.3-0.2,0.5-0.5,0.6c-0.1,0-0.1,0-0.2,0l-5-0.4l-0.2,2
	l1,0.1c3.8,0.3,4.9,2.1,4.8,3.9l-0.2,2.4c-0.1,1.8-1.5,3.4-5.3,3.1s-4.9-2.2-4.7-3.9l0.1-0.7c0-0.3,0.1-0.5,0.4-0.6
	c0.1,0,0.1,0,0.2,0l2.1,0.2c0.3,0,0.5,0.2,0.6,0.5c0,0.1,0,0.1,0,0.2v0.2c-0.1,0.9,0.6,1.4,1.6,1.5s1.7-0.2,1.8-1.2L112,28
	c0.1-0.9-0.6-1.4-1.6-1.5l-3.8-0.3c-0.3,0-0.5-0.2-0.5-0.5c0-0.1,0-0.1,0-0.2l0.5-6.2c0-0.3,0.1-0.5,0.4-0.6c0.1,0,0.1,0,0.2,0
	L115,19.5z"/>
<path id="breiteNum" d="M53.8,30.7c0.2-0.2,0.5-0.3,0.8,0.2l5.2,9.4l2.1-1.2c0.2-0.2,0.5-0.2,0.7,0c0.1,0.1,0.1,0.1,0.1,0.2l0.8,1.4
	c0.2,0.2,0.1,0.6-0.1,0.7c0,0-0.1,0.1-0.2,0.1l-7.3,4c-0.2,0.2-0.5,0.2-0.7,0c0-0.1-0.1-0.1-0.1-0.2l-0.8-1.4
	c-0.2-0.2-0.1-0.5,0.1-0.7c0.1,0,0.1-0.1,0.2-0.1l2.2-1.2L52.9,35l-2,1.5c-0.2,0.2-0.4,0.2-0.6,0.1c-0.1-0.1-0.2-0.2-0.2-0.3
	l-0.8-1.4c-0.2-0.3-0.1-0.6,0.2-0.8c0,0,0,0,0.1,0L53.8,30.7z M61.3,30.8c-0.7-1.6-0.5-3.6,3-5c3.4-1.4,4.9-0.1,5.6,1.5l0.5,1.3
	c0.3,0.8,0.1,1.8-0.5,2.5c1-0.1,1.9,0.5,2.3,1.3l0.6,1.6c0.7,1.6,0.2,3.7-3.2,5.1c-3.4,1.4-5.2,0.2-5.8-1.4l-0.6-1.6
	c-0.3-0.9,0-1.9,0.7-2.6c-0.9,0-1.7-0.6-2.1-1.4L61.3,30.8z M67,29c-0.1-0.6-0.8-1-1.4-0.9c-0.1,0-0.2,0.1-0.4,0.1
	c-0.6,0.1-1,0.7-0.9,1.4c0,0.1,0.1,0.3,0.1,0.4l0.1,0.3c0.1,0.6,0.7,1,1.4,0.9c0.1,0,0.3-0.1,0.4-0.1c0.6-0.1,1-0.8,0.9-1.4
	c0-0.1-0.1-0.2-0.1-0.4L67,29z M69.3,34.2c-0.4-0.9-1-1-1.9-0.6c-0.9,0.3-1.3,0.9-0.9,1.8l0.2,0.6c0.2,0.7,0.9,1,1.6,0.8
	c0.1,0,0.2-0.1,0.3-0.1c0.7-0.1,1.2-0.8,1-1.5c0-0.1-0.1-0.2-0.1-0.3L69.3,34.2z M72.6,26.3c-0.4-1.8,0.5-3.8,4.1-4.7
	c3.7-0.9,5.4,0.5,5.9,2.3l1.8,7.2c0.4,1.8-0.5,3.8-4.2,4.7c-3.7,0.9-5.4-0.5-5.9-2.3L72.6,26.3z M79.4,25.2c-0.2-0.9-1-1.2-2-0.9
	c-1,0.2-1.5,0.8-1.3,1.7l1.5,6c0.2,0.9,1,1.2,2,0.9c1-0.2,1.6-0.8,1.3-1.7L79.4,25.2z"/>
</svg>
