<?xml version="1.0" encoding="utf-8"?>
<!-- Generator: Adobe Illustrator 17.1.0, SVG Export Plug-In . SVG Version: 6.00 Build 0)  -->
<!DOCTYPE svg PUBLIC "-//W3C//DTD SVG 1.1//EN" "http://www.w3.org/Graphics/SVG/1.1/DTD/svg11.dtd">
<svg version="1.1" xmlns="http://www.w3.org/2000/svg" xmlns:xlink="http://www.w3.org/1999/xlink" x="0px" y="0px"
	 viewBox="0 0 210 60" style="enable-background:new 0 0 210 60;" xml:space="preserve">
<g id="tire">
	<g>
		<path style="fill:#666666;" d="M58.5,58.7H62c12.3-8.2,27.1-12.9,43-12.9c15.9,0,30.7,4.8,43,12.9h3.5
			c-13.1-9.4-29.1-14.9-46.5-14.9C87.7,43.8,71.6,49.3,58.5,58.7z"/>
		<path style="fill:#666666;" d="M105,8.8c-39.4,0-74.1,19.8-94.8,49.9h1.2C32,29.1,66.2,9.8,105,9.8s73,19.4,93.6,48.9h1.2
			C179.1,28.6,144.4,8.8,105,8.8z"/>
		<path style="fill:#666666;" d="M3.6,58.7c0.6-1,1.3-2,2-3L6,58.7v0l0,0h0.8l4.6-6.3l-0.6-3.9c1-1.3,2.1-2.6,3.2-3.8l0.1,3l0,0l0,0
			l0,1l0.7-0.7v0l5.5-5.8l-0.1-4.2c1.2-1.2,2.5-2.4,3.7-3.5l-0.3,4.1l0.5-0.4v0l6.3-5.4l0.3-4c1.3-1,2.6-2,4-3l-0.8,4l0.6-0.4v0
			l7-4.5l0.8-4.1c1.4-0.9,2.8-1.7,4.3-2.5l-1.3,3.8l0.6-0.3v0l7.5-3.7l1.3-3.9c1.5-0.7,3.1-1.4,4.6-2l-1.6,3.6l0.6-0.2l7.8-2.9
			l1.6-3.5c1.7-0.6,3.4-1.1,5.2-1.6l-1.7,2.7l-0.5,0.8l0.7-0.2l8.1-1.9l2.2-3.5c1.6-0.3,3.2-0.6,4.9-0.9l-2.4,3.1l1-0.1l7.9-1l2.4-3
			c1.9-0.1,3.7-0.2,5.6-0.3L98.6,6h9l2.6-2.6c1.8,0.1,3.7,0.2,5.5,0.4l-3.2,2.6l0.7,0.1l0,0l0.3,0l7,0.7v0l1,0.1l2.9-2.4
			c1.8,0.3,3.6,0.6,5.3,1L127,7.5L126.2,8l0.7,0.2l0.3,0.1l0,0l6.8,1.5l0,0l1,0.2l3.2-2.1c1.8,0.5,3.5,1,5.2,1.6l-3.8,1.8l0.6,0.2
			l6.9,2.5l0.9,0.3l3.6-1.7c1.6,0.7,3.1,1.3,4.6,2.1l-3.9,1.3l0.6,0.3v0l6.5,3.3l0.9,0.5l3.8-1.2c1.5,0.8,2.9,1.7,4.4,2.6l-4,0.8
			l0.6,0.4l0.2,0.1l0.1,0l5.8,4l0.8,0.6l4.1-0.8c1.1,0.8,2.2,1.7,3.3,2.5l-4.1,0.5l0.8,0.6l5.5,4.4h0l0.8,0.6l3.7-0.4
			c1.2,1.1,2.3,2.2,3.5,3.3l-4.1-0.1l0.5,0.5l0.2,0.2l0,0l4.9,5l0.7,0.7l3.9,0.1c1.1,1.3,2.2,2.6,3.3,3.9l-3.8-0.5l0.6,0.8l4.3,5.5
			h0l0.6,0.8l3.5,0.4c0.7,1.1,1.4,2.1,2.1,3.2h2.4C187.1,24.2,148.7,1.3,105,1.3S22.9,24.2,1.2,58.7H3.6z M203.7,54.7l-2.6-0.3
			l-4.3-5.5l2.8,0.4C201.1,51,202.4,52.9,203.7,54.7z M195.1,43.8l-3-0.1l-4.9-5l3.1,0.1C192,40.4,193.6,42.1,195.1,43.8z
			 M185.4,34.1l-2.8,0.3l-5.5-4.4l3.1-0.4C182,31.1,183.8,32.6,185.4,34.1z M175.4,26l-3.2,0.6l-5.8-4l3.1-0.6
			C171.5,23.3,173.5,24.6,175.4,26z M163.4,18.4l-2.9,1l-6.2-3.2l3-1C159.4,16.2,161.4,17.3,163.4,18.4z M150.9,12.3l-2.8,1.3
			l-6.6-2.4l2.9-1.4C146.6,10.6,148.7,11.5,150.9,12.3z M137.3,7.7l-2.5,1.6L128,7.7l2.6-1.7C132.9,6.5,135.1,7.1,137.3,7.7z
			 M123.4,4.7l-2.2,1.8l-7-0.7l2.4-2C118.9,4.1,121.2,4.3,123.4,4.7z M105,3.3c1.4,0,2.8,0,4.2,0.1l-1.9,1.9h-7l2-2
			C103.2,3.3,104.1,3.3,105,3.3z M94.7,3.7L92.9,6l-6.9,0.9l1.8-2.4C90,4.2,92.3,3.9,94.7,3.7z M80.9,5.7l-1.7,2.7L72.4,10l1.7-2.7
			C76.3,6.7,78.6,6.2,80.9,5.7z M67,9.4l-1.2,2.7l-6.6,2.4l1.3-2.7C62.6,11,64.8,10.2,67,9.4z M54,14.6l-1,3l-6.3,3.1l1-2.9
			C49.7,16.7,51.8,15.6,54,14.6z M35.7,25.2c1.9-1.3,3.9-2.6,5.9-3.9L41,24.4l-5.9,3.8L35.7,25.2z M24.8,33.8
			c1.7-1.5,3.5-3.1,5.3-4.5l-0.3,3.1L24.6,37L24.8,33.8z M19.6,38.7l0.1,3.2l-4.9,5l-0.1-3.1C16.4,42.1,18,40.4,19.6,38.7z
			 M10.3,49.3l0.4,3l-4.1,5.6l-0.5-3C7.5,53,8.9,51.1,10.3,49.3z"/>
		<path style="fill:#666666;" d="M93,36.4C93,36.8,92.8,37,92.4,37l-2.3,0.2c-0.4,0-0.6-0.1-0.5-0.6l2.3-16c0.1-0.4,0.2-0.6,0.6-0.7
			l2.3-0.2c0.4,0,0.6,0.2,0.5,0.6L93,36.4z"/>
	</g>
</g>
<g id="zollNum">
	<g>
		<path style="fill:#666666;" d="M131,31.6l0.8,5.2c0.1,0.4-0.3,0.6-0.7,0.5l-2.1-0.5c-0.4-0.1-0.4-0.4-0.4-0.7l-0.7-4.7l-1.5-0.3
			l-1,4.3c-0.1,0.4-0.3,0.6-0.7,0.5l-2.1-0.5c-0.4-0.1-0.5-0.3-0.4-0.7l2.8-12.1c0.1-0.4,0.3-0.5,0.7-0.5l4.2,1
			c3.7,0.8,4.6,2.8,4.2,4.5l-0.4,1.7C133.4,30.3,132.6,31.3,131,31.6z M127.7,25.3l-0.7,3.1l1.6,0.4c1,0.2,1.9,0,2.1-0.9l0.1-0.6
			c0.2-0.9-0.5-1.5-1.5-1.7L127.7,25.3z"/>
		<path style="fill:#666666;" d="M143.8,27.2c0.3,0.1,0.5,0.2,0.3,0.7l-3.8,9.8l2.2,0.9c0.4,0.2,0.5,0.3,0.4,0.7l-0.6,1.5
			c-0.2,0.4-0.4,0.5-0.8,0.3l-7.6-2.9c-0.4-0.2-0.5-0.4-0.3-0.8l0.6-1.5c0.2-0.4,0.4-0.5,0.8-0.3l2.3,0.9l2.9-7.4l-2.4-0.6
			c-0.4-0.1-0.5-0.3-0.4-0.7l0.6-1.5c0.2-0.4,0.4-0.5,0.8-0.4L143.8,27.2z"/>
		<path style="fill:#666666;" d="M156.5,34c0.4,0.2,0.4,0.4,0.2,0.8l-0.8,1.3c-0.2,0.4-0.4,0.4-0.8,0.2l-4.2-2.5l-1,1.7l0.8,0.5
			c3.2,1.9,3.4,4,2.5,5.4l-1.2,2c-0.9,1.5-2.7,2.4-6,0.4c-3.2-1.9-3.4-4-2.5-5.4l0.4-0.6c0.2-0.4,0.4-0.4,0.8-0.2l1.8,1
			c0.4,0.2,0.4,0.4,0.2,0.8l-0.1,0.2c-0.5,0.8-0.1,1.5,0.8,2c0.8,0.5,1.6,0.5,2.1-0.3l0.7-1.2c0.5-0.8,0.1-1.4-0.8-1.9l-3.2-1.9
			c-0.4-0.2-0.4-0.4-0.2-0.8l3.1-5.2c0.2-0.4,0.4-0.4,0.8-0.2L156.5,34z"/>
	</g>
</g>
<g id="hoeheNum">
	<g>
		<path style="fill:#666666;" d="M98.6,23.7c0-1.7,1.1-3.4,4.7-3.5c3.6,0,4.7,1.7,4.7,3.4l0,0.6c0,0.4-0.2,0.6-0.6,0.6l-2.1,0
			c-0.4,0-0.6-0.2-0.6-0.6l0-0.1c0-0.9-0.5-1.3-1.5-1.3c-0.9,0-1.5,0.4-1.5,1.3l0,1.9c0.6-0.3,1.2-0.5,2-0.5c3.1,0,4.3,1.7,4.4,3.4
			l0,1.7c0,1.7-1.1,3.4-4.7,3.5c-3.6,0-4.8-1.7-4.8-3.4L98.6,23.7z M104.9,29.5c0-0.9-0.6-1.3-1.5-1.3c-0.9,0-1.5,0.4-1.5,1.2l0,0.9
			c0,0.9,0.6,1.3,1.5,1.3c0.9,0,1.5-0.4,1.5-1.3L104.9,29.5z"/>
		<path style="fill:#666666;" d="M110.6,23.8c0.2-1.7,1.6-3.3,5.2-2.9c3.6,0.3,4.7,2.2,4.6,3.9l-0.7,7.1c-0.2,1.7-1.6,3.3-5.2,2.9
			c-3.6-0.3-4.7-2.2-4.6-3.9L110.6,23.8z M117.1,24.9c0.1-0.9-0.6-1.4-1.5-1.4c-0.9-0.1-1.6,0.2-1.7,1.1l-0.6,5.9
			c-0.1,0.9,0.5,1.4,1.5,1.4c0.9,0.1,1.7-0.2,1.7-1.1L117.1,24.9z"/>
	</g>
</g>
<g id="breiteNum">
	<g>
		<path style="fill:#666666;" d="M64.7,39.1c0.4-0.2,0.6-0.1,0.8,0.2l0.7,1.4c0.2,0.4,0.1,0.6-0.3,0.8l-7.5,3.6
			c-0.4,0.2-0.6,0.1-0.8-0.3l-1.6-3.2c-0.5-1-0.2-1.5,0.3-2.1l3-3.6c0.3-0.3,0.4-0.6,0.1-1.2l-0.4-0.8c-0.4-0.8-1.2-0.9-2-0.5
			c-0.8,0.4-1.3,1-0.9,1.9l0.3,0.6c0.2,0.4,0.1,0.6-0.2,0.8l-1.9,0.9c-0.4,0.2-0.6,0.1-0.8-0.3l-0.5-1.1c-0.7-1.6-0.4-3.6,2.9-5.2
			c3.2-1.6,5.1-0.6,5.9,1l0.6,1.2c0.9,1.9,0.3,3.1-0.3,3.8l-2.4,2.8c-0.4,0.5-0.5,0.7-0.3,1.2l0.2,0.5L64.7,39.1z"/>
		<path style="fill:#666666;" d="M64.4,31c-0.5-1.6,0.2-3.7,3.7-4.7c3.4-1.1,5.2,0.2,5.7,1.8l2.1,6.8c0.5,1.6-0.2,3.7-3.7,4.7
			c-3.4,1.1-5.2-0.2-5.7-1.8L64.4,31z M70.8,29.7c-0.3-0.9-1-1-1.9-0.8c-0.9,0.3-1.4,0.8-1.1,1.7l1.8,5.7c0.3,0.9,1,1,1.9,0.8
			c0.9-0.3,1.4-0.8,1.2-1.7L70.8,29.7z"/>
		<path style="fill:#666666;" d="M84.2,22.8c0.4-0.1,0.6,0,0.7,0.4l0.3,1.5c0.1,0.4-0.1,0.6-0.5,0.7l-4.8,0.9l0.4,1.9l1-0.2
			c3.7-0.7,5.2,0.8,5.5,2.5l0.4,2.3c0.3,1.7-0.5,3.6-4.2,4.3c-3.7,0.7-5.1-0.8-5.5-2.5l-0.1-0.7c-0.1-0.4,0-0.6,0.4-0.7l2-0.4
			c0.4-0.1,0.6,0.1,0.7,0.5l0,0.2c0.2,0.9,0.9,1.2,1.9,1c1-0.2,1.6-0.7,1.4-1.6l-0.2-1.3c-0.2-0.9-0.9-1.1-1.9-1l-3.6,0.7
			c-0.4,0.1-0.6-0.1-0.7-0.5l-1.1-6c-0.1-0.4,0-0.6,0.4-0.7L84.2,22.8z"/>
	</g>
</g>
</svg>
