<?xml version="1.0" encoding="utf-8"?>
<!-- Generator: Adobe Illustrator 17.1.0, SVG Export Plug-In . SVG Version: 6.00 Build 0)  -->
<!DOCTYPE svg PUBLIC "-//W3C//DTD SVG 1.1//EN" "http://www.w3.org/Graphics/SVG/1.1/DTD/svg11.dtd">
<svg version="1.1" id="Layer_1" xmlns="http://www.w3.org/2000/svg" xmlns:xlink="http://www.w3.org/1999/xlink" x="0px" y="0px"
	 viewBox="0 0 100 100" style="enable-background:new 0 0 100 100;" xml:space="preserve">
<g>
	<path style="fill:#FF4600;" d="M50.5,5c-14,0-25,11-25,25s11,25,25,25s25-11,25-25S64.5,5,50.5,5z M50.5,45c-9,0-15.5-7-15.5-15
		c0-8.5,7-15,15.5-15C57,15,65,21,65,30S58,45,50.5,45z"/>
	<path style="fill:#FF4600;" d="M50,65C28.5,65,9,77,0,95h10c11-14.5,23.5-21,40-21c17,0,29,6.5,40,21h10C91,77,71.5,65,50,65z"/>
</g>
</svg>
