<?xml version="1.0" encoding="utf-8"?>
<!-- Generator: Adobe Illustrator 19.2.0, SVG Export Plug-In . SVG Version: 6.00 Build 0)  -->
<svg version="1.1" id="Layer_1" xmlns="http://www.w3.org/2000/svg" xmlns:xlink="http://www.w3.org/1999/xlink" x="0px" y="0px"
	 width="64px" height="64px" viewBox="0 0 64 64" style="enable-background:new 0 0 64 64;" xml:space="preserve">
<g>
	<path d="M59.2,55.1L42.9,38.9c-0.1-0.1-0.2-0.2-0.3-0.2c2.8-3.6,4.5-8.2,4.5-13.1C47.1,13.6,37.4,4,25.5,4C13.6,4,4,13.6,4,25.5
		c0,11.9,9.6,21.5,21.5,21.5c4.9,0,9.4-1.7,13.1-4.5c0.1,0.1,0.1,0.2,0.2,0.3l16.2,16.2c1.1,1.1,2.9,1.1,4.1,0
		C60.3,58,60.3,56.2,59.2,55.1z M6.9,25.5c0-10.3,8.4-18.7,18.7-18.7s18.7,8.4,18.7,18.7s-8.4,18.7-18.7,18.7S6.9,35.8,6.9,25.5z"/>
	<path d="M37,27H27v10h-3V27H14v-3h10V14h3v10h10V27z"/>
</g>
</svg>
