<?xml version="1.0" encoding="utf-8"?>
<!-- Generator: Adobe Illustrator 17.1.0, SVG Export Plug-In . SVG Version: 6.00 Build 0)  -->
<!DOCTYPE svg PUBLIC "-//W3C//DTD SVG 1.1//EN" "http://www.w3.org/Graphics/SVG/1.1/DTD/svg11.dtd">
<svg version="1.1" id="Layer_1" xmlns="http://www.w3.org/2000/svg" xmlns:xlink="http://www.w3.org/1999/xlink" x="0px" y="0px"
	 viewBox="0 0 20 20" style="enable-background:new 0 0 20 20;" xml:space="preserve">
<g>
	<g>
		<path style="fill:#CCCCCC;" d="M17.6,20H2.4C1.1,20,0,18.9,0,17.6V2.4C0,1.1,1.1,0,2.4,0h15.2C18.9,0,20,1.1,20,2.4v15.2
			C20,18.9,18.9,20,17.6,20z M2.4,1C1.6,1,1,1.6,1,2.4v15.2C1,18.4,1.6,19,2.4,19h15.2c0.8,0,1.4-0.6,1.4-1.4V2.4
			C19,1.6,18.4,1,17.6,1H2.4z"/>
	</g>
	<path style="fill:#FF4600;" d="M13,10c0,1.7-1.3,3-3,3s-3-1.3-3-3s1.3-3,3-3S13,8.3,13,10z"/>
</g>
</svg>
